<svg
  display="none"
  width="0"
  height="0"
  version="1.1"
  xmlns="http://www.w3.org/2000/svg"
  xmlns:xlink="http://www.w3.org/1999/xlink"
>
  <defs>

    <symbol
      viewBox="0 0 21 20"
      id="icon-search"
    >
      <path
        d="M18.2656 16.6895L13.1934 11.6172C13.9805 10.5996 14.4062 9.35547 14.4062 8.04688C14.4062 6.48047 13.7949 5.01172 12.6895 3.9043C11.584 2.79687 10.1113 2.1875 8.54688 2.1875C6.98242 2.1875 5.50977 2.79883 4.4043 3.9043C3.29687 5.00977 2.6875 6.48047 2.6875 8.04688C2.6875 9.61133 3.29883 11.084 4.4043 12.1895C5.50977 13.2969 6.98047 13.9062 8.54688 13.9062C9.85547 13.9062 11.0977 13.4805 12.1152 12.6953L17.1875 17.7656C17.2024 17.7805 17.22 17.7923 17.2395 17.8004C17.2589 17.8084 17.2797 17.8126 17.3008 17.8126C17.3218 17.8126 17.3427 17.8084 17.3621 17.8004C17.3815 17.7923 17.3992 17.7805 17.4141 17.7656L18.2656 16.916C18.2805 16.9011 18.2923 16.8835 18.3004 16.864C18.3084 16.8446 18.3126 16.8238 18.3126 16.8027C18.3126 16.7817 18.3084 16.7609 18.3004 16.7414C18.2923 16.722 18.2805 16.7043 18.2656 16.6895ZM11.6406 11.1406C10.8125 11.9668 9.71484 12.4219 8.54688 12.4219C7.37891 12.4219 6.28125 11.9668 5.45312 11.1406C4.62695 10.3125 4.17188 9.21484 4.17188 8.04688C4.17188 6.87891 4.62695 5.7793 5.45312 4.95312C6.28125 4.12695 7.37891 3.67188 8.54688 3.67188C9.71484 3.67188 10.8145 4.125 11.6406 4.95312C12.4668 5.78125 12.9219 6.87891 12.9219 8.04688C12.9219 9.21484 12.4668 10.3145 11.6406 11.1406Z"
        fill="currentColor"
      />
    </symbol>

    <symbol
      viewBox="0 0 512 512"
      id="icon-phone"
    >
      <path
        d="M280 0C408.1 0 512 103.9 512 232c0 13.3-10.7 24-24 24s-24-10.7-24-24c0-101.6-82.4-184-184-184c-13.3 0-24-10.7-24-24s10.7-24 24-24zm8 192a32 32 0 1 1 0 64 32 32 0 1 1 0-64zm-32-72c0-13.3 10.7-24 24-24c75.1 0 136 60.9 136 136c0 13.3-10.7 24-24 24s-24-10.7-24-24c0-48.6-39.4-88-88-88c-13.3 0-24-10.7-24-24zM117.5 1.4c19.4-5.3 39.7 4.6 47.4 23.2l40 96c6.8 16.3 2.1 35.2-11.6 46.3L144 207.3c33.3 70.4 90.3 127.4 160.7 160.7L345 318.7c11.2-13.7 30-18.4 46.3-11.6l96 40c18.6 7.7 28.5 28 23.2 47.4l-24 88C481.8 499.9 466 512 448 512C200.6 512 0 311.4 0 64C0 46 12.1 30.2 29.5 25.4l88-24z"
        fill="currentColor"
      />
    </symbol>

    <symbol
      viewBox="0 0 25 24"
      id="icon-cart-plus"
    >
      <g clipPath="url(#clip0_1_15083)">
        <path
          d="M18.0385 7.63636C18.0385 7.34091 17.9471 7.08523 17.7644 6.86932C17.5817 6.65341 17.3654 6.54545 17.1154 6.54545H15.2692V4.36364C15.2692 4.06818 15.1779 3.8125 14.9952 3.59659C14.8125 3.38068 14.5962 3.27273 14.3462 3.27273C14.0962 3.27273 13.8798 3.38068 13.6971 3.59659C13.5144 3.8125 13.4231 4.06818 13.4231 4.36364V6.54545H11.5769C11.3269 6.54545 11.1106 6.65341 10.9279 6.86932C10.7452 7.08523 10.6538 7.34091 10.6538 7.63636C10.6538 7.93182 10.7452 8.1875 10.9279 8.40341C11.1106 8.61932 11.3269 8.72727 11.5769 8.72727H13.4231V10.9091C13.4231 11.2045 13.5144 11.4602 13.6971 11.6761C13.8798 11.892 14.0962 12 14.3462 12C14.5962 12 14.8125 11.892 14.9952 11.6761C15.1779 11.4602 15.2692 11.2045 15.2692 10.9091V8.72727H17.1154C17.3654 8.72727 17.5817 8.61932 17.7644 8.40341C17.9471 8.1875 18.0385 7.93182 18.0385 7.63636ZM9.73077 21.8182C9.73077 22.4205 9.55048 22.9347 9.1899 23.3608C8.82933 23.7869 8.39423 24 7.88462 24C7.375 24 6.9399 23.7869 6.57933 23.3608C6.21875 22.9347 6.03846 22.4205 6.03846 21.8182C6.03846 21.2159 6.21875 20.7017 6.57933 20.2756C6.9399 19.8494 7.375 19.6364 7.88462 19.6364C8.39423 19.6364 8.82933 19.8494 9.1899 20.2756C9.55048 20.7017 9.73077 21.2159 9.73077 21.8182ZM22.6538 21.8182C22.6538 22.4205 22.4736 22.9347 22.113 23.3608C21.7524 23.7869 21.3173 24 20.8077 24C20.2981 24 19.863 23.7869 19.5024 23.3608C19.1418 22.9347 18.9615 22.4205 18.9615 21.8182C18.9615 21.2159 19.1418 20.7017 19.5024 20.2756C19.863 19.8494 20.2981 19.6364 20.8077 19.6364C21.3173 19.6364 21.7524 19.8494 22.113 20.2756C22.4736 20.7017 22.6538 21.2159 22.6538 21.8182ZM24.5 3.27273V12C24.5 12.2727 24.4231 12.5142 24.2692 12.7244C24.1154 12.9347 23.9183 13.0568 23.6779 13.0909L8.62019 15.1705C8.62981 15.25 8.65144 15.3722 8.6851 15.5369C8.71875 15.7017 8.7476 15.8523 8.77164 15.9886C8.79567 16.125 8.80769 16.25 8.80769 16.3636C8.80769 16.5455 8.69231 16.9091 8.46154 17.4545H21.7308C21.9808 17.4545 22.1971 17.5625 22.3798 17.7784C22.5625 17.9943 22.6538 18.25 22.6538 18.5455C22.6538 18.8409 22.5625 19.0966 22.3798 19.3125C22.1971 19.5284 21.9808 19.6364 21.7308 19.6364H6.96154C6.71154 19.6364 6.49519 19.5284 6.3125 19.3125C6.12981 19.0966 6.03846 18.8409 6.03846 18.5455C6.03846 18.3864 6.09135 18.1619 6.19712 17.8722C6.30288 17.5824 6.44471 17.2443 6.6226 16.858C6.80048 16.4716 6.89904 16.2557 6.91827 16.2102L4.36538 2.18182H1.42308C1.17308 2.18182 0.956731 2.07386 0.774038 1.85795C0.591346 1.64205 0.5 1.38636 0.5 1.09091C0.5 0.795455 0.591346 0.539773 0.774038 0.323864C0.956731 0.107955 1.17308 0 1.42308 0H5.11538C5.26923 0 5.40625 0.0369318 5.52644 0.110795C5.64663 0.184659 5.74279 0.272727 5.8149 0.375C5.88702 0.477273 5.94952 0.616477 6.0024 0.792614C6.05529 0.96875 6.09135 1.11932 6.11058 1.24432C6.12981 1.36932 6.15625 1.53693 6.1899 1.74716C6.22356 1.95739 6.24519 2.10227 6.25481 2.18182H23.5769C23.8269 2.18182 24.0433 2.28977 24.226 2.50568C24.4087 2.72159 24.5 2.97727 24.5 3.27273Z"
          fill="currentColor"
        />
      </g>
      <defs>
        <clipPath id="clip0_1_15083">
          <rect
            width="24"
            height="24"
            fill="white"
            transform="translate(0.5)"
          />
        </clipPath>
      </defs>
    </symbol>

    <symbol viewBox="0 0 12 13" fill="none" id="icon-cart-shopping">
      <g clip-path="url(#clip0_1_22106)">
        <path
          d="M4.5 11.5C4.77614 11.5 5 11.2761 5 11C5 10.7239 4.77614 10.5 4.5 10.5C4.22386 10.5 4 10.7239 4 11C4 11.2761 4.22386 11.5 4.5 11.5Z"
          stroke="#B4916C" stroke-width="2" stroke-linecap="round" stroke-linejoin="round" />
        <path
          d="M10 11.5C10.2761 11.5 10.5 11.2761 10.5 11C10.5 10.7239 10.2761 10.5 10 10.5C9.72386 10.5 9.5 10.7239 9.5 11C9.5 11.2761 9.72386 11.5 10 11.5Z"
          stroke="#B4916C" stroke-width="2" stroke-linecap="round" stroke-linejoin="round" />
        <path
          d="M0.5 1H2.5L3.84 7.695C3.88572 7.9252 4.01095 8.13198 4.19377 8.27915C4.37659 8.42632 4.60535 8.5045 4.84 8.5H9.7C9.93465 8.5045 10.1634 8.42632 10.3462 8.27915C10.529 8.13198 10.6543 7.9252 10.7 7.695L11.5 3.5H3"
          stroke="#B4916C" stroke-linecap="round" stroke-linejoin="round" />
      </g>
      <defs>
        <clipPath id="clip0_1_22106">
          <rect width="12" height="12" fill="white" transform="translate(0 0.5)" />
        </clipPath>
      </defs>
    </symbol>

    <symbol
      id="icon-chevron-down"
      viewBox="0 0 10 6"
    >
      <path
        d="M0.227402 0.46959C0.368048 0.328987 0.558779 0.25 0.757652 0.25C0.956525 0.25 1.14726 0.328987 1.2879 0.46959L5.0004 4.18209L8.7129 0.46959C8.85435 0.332971 9.04381 0.257375 9.24045 0.259084C9.4371 0.260793 9.62521 0.33967 9.76427 0.478726C9.90332 0.617782 9.9822 0.805891 9.98391 1.00254C9.98562 1.19919 9.91002 1.38864 9.7734 1.53009L5.53065 5.77284C5.39001 5.91344 5.19928 5.99243 5.0004 5.99243C4.80153 5.99243 4.6108 5.91344 4.47015 5.77284L0.227402 1.53009C0.0867991 1.38944 0.0078125 1.19871 0.0078125 0.99984C0.0078125 0.800967 0.0867991 0.610236 0.227402 0.46959Z"
        fill="currentColor"
      />
    </symbol>

    <symbol
      id="icon-down-angle"
      viewBox="0 0 448 512"
    >
      <path
        d="M201.4 374.6c12.5 12.5 32.8 12.5 45.3 0l160-160c12.5-12.5 12.5-32.8 0-45.3s-32.8-12.5-45.3 0L224 306.7 86.6 169.4c-12.5-12.5-32.8-12.5-45.3 0s-12.5 32.8 0 45.3l160 160z"
        fill="currentColor"
      />
    </symbol>

    <symbol
      id="icon-envelope"
      viewBox="0 0 512 512"
    >
      <path
        d="M64 112c-8.8 0-16 7.2-16 16v22.1L220.5 291.7c20.7 17 50.4 17 71.1 0L464 150.1V128c0-8.8-7.2-16-16-16H64zM48 212.2V384c0 8.8 7.2 16 16 16H448c8.8 0 16-7.2 16-16V212.2L322 328.8c-38.4 31.5-93.7 31.5-132 0L48 212.2zM0 128C0 92.7 28.7 64 64 64H448c35.3 0 64 28.7 64 64V384c0 35.3-28.7 64-64 64H64c-35.3 0-64-28.7-64-64V128z"
        fill="currentColor"
      />
    </symbol>

    <symbol
      viewBox="64 64 896 896"
      focusable="false"
      data-icon="eye"
      fill="currentColor"
      aria-hidden="true"
      id="icon-eye"
    >
      <path
        d="M942.2 486.2C847.4 286.5 704.1 186 512 186c-192.2 0-335.4 100.5-430.2 300.3a60.3 60.3 0 000 51.5C176.6 737.5 319.9 838 512 838c192.2 0 335.4-100.5 430.2-300.3 7.7-16.2 7.7-35 0-51.5zM512 766c-161.3 0-279.4-81.8-362.7-254C232.6 339.8 350.7 258 512 258c161.3 0 279.4 81.8 362.7 254C791.5 684.2 673.4 766 512 766zm-4-430c-97.2 0-176 78.8-176 176s78.8 176 176 176 176-78.8 176-176-78.8-176-176-176zm0 288c-61.9 0-112-50.1-112-112s50.1-112 112-112 112 50.1 112 112-50.1 112-112 112z"
        fill="currentColor"
      ></path>
    </symbol>

    <symbol
      viewBox="64 64 896 896"
      focusable="false"
      data-icon="eye-invisible"
      aria-hidden="true"
      id="icon-eye-invisible"
      fill="currentColor"
    >
      <path
        d="M942.2 486.2Q889.47 375.11 816.7 305l-50.88 50.88C807.31 395.53 843.45 447.4 874.7 512 791.5 684.2 673.4 766 512 766q-72.67 0-133.87-22.38L323 798.75Q408 838 512 838q288.3 0 430.2-300.3a60.29 60.29 0 000-51.5zm-63.57-320.64L836 122.88a8 8 0 00-11.32 0L715.31 232.2Q624.86 186 512 186q-288.3 0-430.2 300.3a60.3 60.3 0 000 51.5q56.69 119.4 136.5 191.41L112.48 835a8 8 0 000 11.31L155.17 889a8 8 0 0011.31 0l712.15-712.12a8 8 0 000-11.32zM149.3 512C232.6 339.8 350.7 258 512 258c54.54 0 104.13 9.36 149.12 28.39l-70.3 70.3a176 176 0 00-238.13 238.13l-83.42 83.42C223.1 637.49 183.3 582.28 149.3 512zm246.7 0a112.11 112.11 0 01146.2-106.69L401.31 546.2A112 112 0 01396 512z"
      ></path>
      <path
        d="M508 624c-3.46 0-6.87-.16-10.25-.47l-52.82 52.82a176.09 176.09 0 00227.42-227.42l-52.82 52.82c.31 3.38.47 6.79.47 10.25a111.94 111.94 0 01-112 112z"
      ></path>
    </symbol>

    <symbol
      viewBox="0 0 24 25"
      id="icon-favorite"
    >
      <circle cx="12" cy="12.5" r="12" fillOpacity="0.08" />
      <path
        d="M17.0747 7.56089C16.7815 7.22456 16.4333 6.95775 16.0502 6.77572C15.667 6.59369 15.2563 6.5 14.8415 6.5C14.4268 6.5 14.0161 6.59369 13.6329 6.77572C13.2497 6.95775 12.9016 7.22456 12.6084 7.56089L11.9998 8.25857L11.3913 7.56089C10.7991 6.88184 9.99576 6.50035 9.15816 6.50035C8.32057 6.50035 7.51728 6.88184 6.92501 7.56089C6.33273 8.23994 6 9.16092 6 10.1212C6 11.0816 6.33273 12.0026 6.92501 12.6816L7.53353 13.3793L11.9998 18.5L16.4662 13.3793L17.0747 12.6816C17.368 12.3454 17.6007 11.9463 17.7595 11.507C17.9183 11.0677 18 10.5968 18 10.1212C18 9.64571 17.9183 9.17484 17.7595 8.73552C17.6007 8.29621 17.368 7.89706 17.0747 7.56089Z"
        fillOpacity="0.1"
        stroke="#B4916C"
        strokeLinecap="round"
        strokeLinejoin="round"
        fill="currentColor"
      />
    </symbol>

    <symbol
      viewBox="0 0 20 21"
      id="icon-fluent-list"
    >
      <path
        d="M2.49989 14.666H12.4999C12.7123 14.6663 12.9166 14.7476 13.071 14.8934C13.2255 15.0392 13.3184 15.2385 13.3309 15.4505C13.3433 15.6625 13.2743 15.8713 13.138 16.0342C13.0017 16.1971 12.8083 16.3018 12.5974 16.3268L12.4999 16.3327H2.49989C2.28749 16.3324 2.0832 16.2511 1.92875 16.1053C1.7743 15.9595 1.68136 15.7602 1.66891 15.5482C1.65647 15.3362 1.72545 15.1274 1.86178 14.9645C1.9981 14.8016 2.19148 14.6969 2.40239 14.6718L2.49989 14.666ZM2.49989 9.66602H17.4999C17.7123 9.66625 17.9166 9.74758 18.071 9.89339C18.2255 10.0392 18.3184 10.2385 18.3309 10.4505C18.3433 10.6625 18.2743 10.8713 18.138 11.0342C18.0017 11.1971 17.8083 11.3018 17.5974 11.3268L17.4999 11.3327H2.49989C2.28749 11.3324 2.0832 11.2511 1.92875 11.1053C1.7743 10.9595 1.68136 10.7602 1.66891 10.5482C1.65647 10.3362 1.72545 10.1274 1.86178 9.96449C1.9981 9.80161 2.19148 9.69694 2.40239 9.67185L2.49989 9.66602ZM2.49989 4.66602H14.9999C15.2123 4.66625 15.4166 4.74758 15.571 4.89339C15.7255 5.0392 15.8184 5.23848 15.8309 5.45051C15.8433 5.66255 15.7743 5.87133 15.638 6.03421C15.5017 6.19709 15.3083 6.30176 15.0974 6.32685L14.9999 6.33268H2.49989C2.28749 6.33245 2.0832 6.25112 1.92875 6.10531C1.7743 5.9595 1.68136 5.76022 1.66891 5.54819C1.65647 5.33615 1.72545 5.12737 1.86178 4.96449C1.9981 4.80161 2.19148 4.69694 2.40239 4.67185L2.49989 4.66602Z"
        fill="currentColor"
      />
    </symbol>

    <symbol width="16" height="17" id="icon-google" viewBox="0 0 16 17" fill="none">
      <path
        d="M15.8445 6.93323H15.2001V6.90003H8.00003V10.1H12.5213C11.8617 11.9628 10.0892 13.3001 8.00003 13.3001C5.34922 13.3001 3.20001 11.1508 3.20001 8.50003C3.20001 5.84922 5.34922 3.70001 8.00003 3.70001C9.22364 3.70001 10.3368 4.16162 11.1844 4.91562L13.4473 2.65281C12.0185 1.3212 10.1072 0.5 8.00003 0.5C3.58202 0.5 0 4.08202 0 8.50003C0 12.9181 3.58202 16.5001 8.00003 16.5001C12.4181 16.5001 16.0001 12.9181 16.0001 8.50003C16.0001 7.96363 15.9449 7.44003 15.8445 6.93323Z"
        fill="#FFC107" />
      <path
        d="M0.921875 4.77642L3.55029 6.70403C4.26149 4.94322 5.9839 3.70001 7.99951 3.70001C9.22311 3.70001 10.3363 4.16162 11.1839 4.91562L13.4467 2.65281C12.0179 1.3212 10.1067 0.5 7.99951 0.5C4.92669 0.5 2.26188 2.23481 0.921875 4.77642Z"
        fill="#FF3D00" />
      <path
        d="M7.99996 16.5003C10.0664 16.5003 11.944 15.7095 13.3636 14.4235L10.8876 12.3283C10.0844 12.9367 9.08596 13.3003 7.99996 13.3003C5.91915 13.3003 4.15234 11.9735 3.48674 10.1219L0.87793 12.1319C2.20194 14.7227 4.89075 16.5003 7.99996 16.5003Z"
        fill="#4CAF50" />
      <path
        d="M15.8444 6.93322H15.2V6.90002H8V10.1H12.5212C12.2044 10.9948 11.6288 11.7664 10.8864 12.3284C10.8868 12.328 10.8872 12.328 10.8876 12.3276L13.3636 14.4229C13.1884 14.5821 16 12.5 16 8.50003C16 7.96363 15.9448 7.44003 15.8444 6.93322Z"
        fill="#1976D2" />
    </symbol>

    <symbol viewBox="0 0 12 13" fill="none" id="icon-rounded-user">
      <path fill-rule="evenodd" clip-rule="evenodd"
        d="M5.7808 8.10742C3.74151 8.10742 2 8.41575 2 9.65058C2 10.8854 3.73046 11.2048 5.7808 11.2048C7.8201 11.2048 9.56111 10.8959 9.56111 9.66162C9.56111 8.4273 7.83115 8.10742 5.7808 8.10742Z"
        stroke="#B4916C" stroke-linecap="round" stroke-linejoin="round" />
      <path fill-rule="evenodd" clip-rule="evenodd"
        d="M5.78076 6.3464C7.11904 6.3464 8.20371 5.26122 8.20371 3.92295C8.20371 2.58468 7.11904 1.5 5.78076 1.5C4.44249 1.5 3.35731 2.58468 3.35731 3.92295C3.35279 5.2567 4.43044 6.34188 5.76369 6.3464H5.78076Z"
        stroke="#B4916C" stroke-linecap="round" stroke-linejoin="round" />
    </symbol>

    <symbol
      id="icon-user"
      viewBox="0 0 448 512"
    >
      <path
        d="M304 128a80 80 0 1 0 -160 0 80 80 0 1 0 160 0zM96 128a128 128 0 1 1 256 0A128 128 0 1 1 96 128zM49.3 464H398.7c-8.9-63.3-63.3-112-129-112H178.3c-65.7 0-120.1 48.7-129 112zM0 482.3C0 383.8 79.8 304 178.3 304h91.4C368.2 304 448 383.8 448 482.3c0 16.4-13.3 29.7-29.7 29.7H29.7C13.3 512 0 498.7 0 482.3z"
        fill="currentColor"
      />
    </symbol>

    <symbol viewBox="0 0 384 512" id="icon-x-mark">
      <path
        d="M342.6 150.6c12.5-12.5 12.5-32.8 0-45.3s-32.8-12.5-45.3 0L192 210.7 86.6 105.4c-12.5-12.5-32.8-12.5-45.3 0s-12.5 32.8 0 45.3L146.7 256 41.4 361.4c-12.5 12.5-12.5 32.8 0 45.3s32.8 12.5 45.3 0L192 301.3 297.4 406.6c12.5 12.5 32.8 12.5 45.3 0s12.5-32.8 0-45.3L237.3 256 342.6 150.6z"
        fill="currentColor"
      />
    </symbol>

    <symbol viewBox="0 0 132 23" id="icon-logo-furniture">
      <path
        d="M0.824 22V1.392H15.32V4.752H5.144V10.032H14.136V13.36H5.144V22H0.824ZM22.174 22.32C20.3607 22.32 18.942 21.8187 17.918 20.816C16.9153 19.792 16.414 18.2987 16.414 16.336V6.832H20.734V16.24C20.734 17.264 20.9793 18.0107 21.47 18.48C21.9607 18.928 22.6967 19.152 23.678 19.152C24.4247 19.152 25.1073 19.0027 25.726 18.704C26.366 18.4053 26.91 18.032 27.358 17.584V6.832H31.678V22H27.678L27.518 20.56C26.878 21.072 26.1207 21.4987 25.246 21.84C24.3927 22.16 23.3687 22.32 22.174 22.32ZM35.3553 22V6.832H39.3553L39.5473 8.4C40.2299 7.97333 41.0726 7.58933 42.0753 7.248C43.0993 6.88533 44.1019 6.64 45.0833 6.512V9.776C44.5073 9.86133 43.8779 9.98933 43.1953 10.16C42.5126 10.3307 41.8619 10.5227 41.2433 10.736C40.6246 10.9493 40.1019 11.1733 39.6753 11.408V22H35.3553ZM47.2928 22V6.832H51.2928L51.4528 8.272C52.0714 7.80267 52.8501 7.39733 53.7888 7.056C54.7488 6.69333 55.7514 6.512 56.7968 6.512C58.8021 6.512 60.2634 6.98133 61.1808 7.92C62.0981 8.85867 62.5568 10.3093 62.5568 12.272V22H58.2368V12.496C58.2368 11.472 58.0234 10.7467 57.5968 10.32C57.1914 9.89333 56.4234 9.68 55.2928 9.68C54.6314 9.68 53.9594 9.82933 53.2768 10.128C52.6154 10.4267 52.0608 10.8 51.6128 11.248V22H47.2928ZM67.13 4.048V0.655998H71.834V4.048H67.13ZM67.482 22V10.032H65.21L65.594 6.832H71.802V22H67.482ZM81.4963 22.32C79.7469 22.32 78.4456 21.8613 77.5923 20.944C76.7603 20.0267 76.3443 18.7787 76.3443 17.2V10.16H74.2003V6.832H76.3443V3.568L80.6643 2.288V6.832H84.5043L84.2483 10.16H80.6643V16.912C80.6643 17.744 80.8563 18.32 81.2403 18.64C81.6243 18.9387 82.2216 19.088 83.0323 19.088C83.6296 19.088 84.2483 18.9813 84.8883 18.768V21.744C84.4189 21.936 83.9069 22.0747 83.3523 22.16C82.7976 22.2667 82.1789 22.32 81.4963 22.32ZM92.7053 22.32C90.8919 22.32 89.4733 21.8187 88.4493 20.816C87.4466 19.792 86.9453 18.2987 86.9453 16.336V6.832H91.2653V16.24C91.2653 17.264 91.5106 18.0107 92.0013 18.48C92.4919 18.928 93.2279 19.152 94.2093 19.152C94.9559 19.152 95.6386 19.0027 96.2573 18.704C96.8973 18.4053 97.4413 18.032 97.8893 17.584V6.832H102.209V22H98.2093L98.0493 20.56C97.4093 21.072 96.6519 21.4987 95.7773 21.84C94.9239 22.16 93.8999 22.32 92.7053 22.32ZM105.887 22V6.832H109.887L110.079 8.4C110.761 7.97333 111.604 7.58933 112.607 7.248C113.631 6.88533 114.633 6.64 115.615 6.512V9.776C115.039 9.86133 114.409 9.98933 113.727 10.16C113.044 10.3307 112.393 10.5227 111.775 10.736C111.156 10.9493 110.633 11.1733 110.207 11.408V22H105.887ZM125.103 22.32C122.479 22.32 120.399 21.6693 118.863 20.368C117.327 19.0453 116.559 17.0507 116.559 14.384C116.559 11.9733 117.199 10.064 118.479 8.656C119.78 7.22667 121.711 6.512 124.271 6.512C126.618 6.512 128.41 7.13067 129.647 8.368C130.906 9.584 131.535 11.184 131.535 13.168V15.92H120.559C120.794 17.136 121.348 17.968 122.223 18.416C123.119 18.864 124.378 19.088 125.999 19.088C126.81 19.088 127.631 19.0133 128.463 18.864C129.316 18.7147 130.042 18.5227 130.639 18.288V21.36C129.935 21.68 129.114 21.9147 128.175 22.064C127.236 22.2347 126.212 22.32 125.103 22.32ZM120.559 13.264H127.759V12.432C127.759 11.5573 127.503 10.8747 126.991 10.384C126.479 9.872 125.615 9.616 124.399 9.616C122.97 9.616 121.967 9.904 121.391 10.48C120.836 11.056 120.559 11.984 120.559 13.264Z"
        fill="#B4916C" />
    </symbol>

    <symbol id="icon-instagram" viewBox="0 0 120 120">
      <path
        d="M80,105H40c-12.15,0-22-9.85-22-22V43c0-12.15,9.85-22,22-22h40c12.15,0,22,9.85,22,22v40 C102,95.15,92.15,105,80,105z"
        opacity=".35"></path>
      <path fill="#9500ba"
        d="M80,18h-5.243h-7.476h-8.456H48.482C73.882,27.06,93.843,47.673,102,73.484V62.306v-8.845v-7.712 V40C102,27.85,92.15,18,80,18z"></path>
      <path
        d="M19.5,45c-0.503,0-1,0.024-1.5,0.038v4C18.5,49.023,18.997,49,19.5,49C47.346,49,70,71.654,70,99.5 c0,0.838-0.023,1.672-0.063,2.5h4c0.038-0.829,0.063-1.662,0.063-2.5C74,69.449,49.551,45,19.5,45z"
        opacity=".35"></path>
      <path fill="#ff7500"
        d="M19.5,61c-0.503,0-1.002,0.019-1.5,0.038v4v4v4.007v4.011C18.496,77.023,18.995,77,19.5,77 C31.907,77,42,87.093,42,99.5c0,0.845-0.051,1.679-0.142,2.5h4.021h4.01h4.01h4.01c0.053-0.827,0.09-1.659,0.09-2.5 C58,78.271,40.729,61,19.5,61z"></path>
      <path fill="#b730e1"
        d="M48.482,18H40c-1.637,0-3.23,0.184-4.764,0.523c-2.568,0.567-4.965,1.583-7.11,2.961 c-1.599,1.028-3.059,2.253-4.339,3.648c-1.09,1.188-2.047,2.498-2.858,3.904C59.144,29.803,90,61.105,90,99.5 c0,0.032-0.002,0.063-0.002,0.095c1.407-0.719,2.728-1.581,3.94-2.574c1.418-1.162,2.686-2.499,3.776-3.976 c1.422-1.928,2.538-4.095,3.274-6.432C101.644,84.526,102,82.305,102,80v-6.516C93.843,47.673,73.882,27.06,48.482,18z"></path>
      <path d="M49,18h-9c45,14,62,55.484,62,55.484C95.55,50.75,76,28,49,18z" opacity=".35"></path>
      <path fill="#d663ff"
        d="M20.93,29.036c-0.721,1.252-1.322,2.581-1.789,3.973c-0.433,1.292-0.749,2.637-0.936,4.024 C18.074,38.004,18,38.993,18,40v1.038v4C18.5,45.024,18.997,45,19.5,45C49.551,45,74,69.449,74,99.5 c0,0.838-0.026,1.671-0.063,2.5h4H80c0.654,0,1.299-0.034,1.939-0.09c1.38-0.121,2.723-0.369,4.019-0.733 c1.409-0.396,2.761-0.928,4.04-1.582c0-0.032,0.002-0.063,0.002-0.095C90,61.105,59.144,29.803,20.93,29.036z"></path>
      <path
        d="M20.93,29.036c-0.721,1.252-1.322,2.581-1.789,3.973l0,0C19.261,33.007,19.38,33,19.5,33 c37.58,0,68.38,29.556,70.39,66.643c0.035-0.018,0.073-0.031,0.107-0.048c0-0.032,0.002-0.063,0.002-0.095 C90,61.105,59.144,29.803,20.93,29.036z"
        opacity=".35"></path>
      <path fill="#ff1200"
        d="M19.5,45c-0.503,0-1,0.024-1.5,0.038v4v4v4v4C18.498,61.019,18.997,61,19.5,61 C40.729,61,58,78.271,58,99.5c0,0.841-0.037,1.673-0.09,2.5h4.01h4.01h4.006h4c0.038-0.829,0.063-1.662,0.063-2.5 C74,69.449,49.551,45,19.5,45z"></path>
      <path
        d="M73.949,101.5c0.026-0.665,0.051-1.329,0.051-2C74,69.449,49.551,45,19.5,45 c-0.503,0-1,0.024-1.5,0.038v4C18.5,49.024,18.997,49,19.5,49C48.881,49,72.892,72.373,73.949,101.5z"
        opacity=".35"></path>
      <path
        d="M57.935,101.321C57.966,100.716,58,100.112,58,99.5C58,78.271,40.729,61,19.5,61 c-0.503,0-1.002,0.019-1.5,0.038v4C18.498,65.019,18.997,65,19.5,65C39.997,65,56.8,81.102,57.935,101.321z"
        opacity=".35"></path>
      <path fill="#ffc400"
        d="M19.5,77c-0.505,0-1.004,0.023-1.5,0.056V80c0,0.36,0.01,0.719,0.027,1.075 c0.526,10.926,9.021,19.761,19.8,20.818C38.542,101.962,39.267,102,40,102h1.858c0.091-0.821,0.142-1.655,0.142-2.5 C42,87.093,31.907,77,19.5,77z"></path>
      <path
        d="M19.5,81c11.72,0,21.37,9.008,22.403,20.462c0.057-0.648,0.097-1.3,0.097-1.962 C42,87.093,31.907,77,19.5,77c-0.505,0-1.004,0.023-1.5,0.056V80c0,0.354,0.01,0.705,0.027,1.055C18.514,81.023,19.004,81,19.5,81 z"
        opacity=".35"></path>
      <circle cx="60" cy="64" r="13.5" fill="none" stroke="#000" stroke-miterlimit="10"
        stroke-width="5" opacity=".35"></circle>
      <circle cx="60" cy="60" r="13.5" fill="none" stroke="#fff" stroke-miterlimit="10"
        stroke-width="5"></circle>
      <circle cx="76" cy="48" r="4" opacity=".35"></circle>
      <circle cx="76" cy="44" r="4" fill="#fff"></circle>
      <path fill="none" stroke="#000" stroke-miterlimit="10" stroke-width="5"
        d="M75.1,91.5H44.9 c-6.848,0-12.4-5.552-12.4-12.4V48.9c0-6.848,5.552-12.4,12.4-12.4h30.2c6.848,0,12.4,5.552,12.4,12.4v30.2 C87.5,85.948,81.948,91.5,75.1,91.5z"
        opacity=".35"></path>
      <path fill="none" stroke="#fff" stroke-miterlimit="10" stroke-width="5"
        d="M75.1,87.5H44.9c-6.848,0-12.4-5.552-12.4-12.4 V44.9c0-6.848,5.552-12.4,12.4-12.4h30.2c6.848,0,12.4,5.552,12.4,12.4v30.2C87.5,81.948,81.948,87.5,75.1,87.5z"></path>
    </symbol>

    <symbol id="icon-facebook" viewBox="0 0 100 100">
      <path fill="#78a2d2" d="M50 15A35 35 0 1 0 50 85A35 35 0 1 0 50 15Z"></path>
      <path fill="#1f212b"
        d="M77.237 64.039c-.074 0-.148-.017-.219-.051-.248-.121-.352-.42-.23-.668.198-.408.388-.819.566-1.233.694-1.612 1.247-3.299 1.643-5.014.063-.27.328-.438.6-.375.27.063.437.331.375.6-.409 1.773-.981 3.518-1.699 5.185-.185.429-.38.854-.586 1.275C77.601 63.936 77.422 64.039 77.237 64.039zM80.383 53.394c-.016 0-.03-.001-.045-.002-.275-.024-.479-.268-.454-.542.058-.647.095-1.296.111-1.944.102-4.025-.589-7.962-2.051-11.703-.101-.257.026-.547.284-.648.257-.101.547.027.647.284 1.511 3.866 2.224 7.934 2.119 12.093-.017.67-.056 1.34-.115 2.007C80.856 53.198 80.639 53.394 80.383 53.394zM27.735 29.728c-.123 0-.245-.044-.341-.135-.202-.188-.212-.504-.024-.707 5.049-5.408 11.882-8.824 19.238-9.618.277-.023.521.169.551.443.03.274-.169.521-.443.551-7.118.768-13.729 4.073-18.614 9.306C28.002 29.675 27.869 29.728 27.735 29.728zM29.278 72.784c-.123 0-.245-.045-.341-.135-10.553-9.853-12.957-25.46-5.845-37.955.136-.24.441-.325.682-.187.24.137.324.442.187.682-6.881 12.09-4.554 27.194 5.659 36.729.202.188.212.505.024.706C29.545 72.73 29.412 72.784 29.278 72.784zM63.348 78.001c-.186 0-.364-.104-.45-.283-.12-.248-.016-.547.233-.667 3.324-1.603 6.3-3.796 8.843-6.519 1.025-1.1 1.974-2.28 2.817-3.51.156-.227.468-.285.695-.129s.285.467.129.695c-.871 1.271-1.851 2.49-2.911 3.625-2.628 2.814-5.702 5.081-9.14 6.737C63.495 77.985 63.421 78.001 63.348 78.001z"></path>
      <path fill="#fefdef"
        d="M44.5,84V59.5h-9v-9h9l0-8.971c-0.195-8.049,5.897-15.88,20-11.538L64.471,38.5l-4.901-0.032 c-3.77,0-5.069,1.246-5.069,3.962v8.07h10.776l-1.894,9H54.5V84"></path>
      <path fill="#1f212b"
        d="M55,84h-1V59h8.977l1.683-8H54v-8.57c0-3.128,1.666-4.462,5.569-4.462l4.403,0.029l0.026-7.634 c-6.137-1.817-11.193-1.399-14.641,1.211c-2.87,2.174-4.458,5.798-4.358,9.943V51h-9v8h9v25h-1V60h-9V50h9v-8.471 c-0.108-4.459,1.625-8.382,4.754-10.752c2.636-1.996,7.534-3.836,15.893-1.264l0.354,0.109l-0.032,9.381l-5.402-0.036 c-3.802,0-4.566,1.325-4.566,3.462V50h10.892l-2.104,10H55V84z"></path>
      <g>
        <path fill="#1f212b"
          d="M50,86c-19.851,0-36-16.149-36-36s16.149-36,36-36s36,16.149,36,36S69.851,86,50,86z M50,16 c-18.748,0-34,15.252-34,34c0,18.748,15.252,34,34,34c18.748,0,34-15.252,34-34C84,31.252,68.748,16,50,16z"></path>
      </g>
    </symbol>

    <symbol id="icon-twitter" viewBox="0 0 48 48">
      <path fill="#03a9f4" d="M24 4A20 20 0 1 0 24 44A20 20 0 1 0 24 4Z"></path>
      <path fill="#fff"
        d="M36,17.12c-0.882,0.391-1.999,0.758-3,0.88c1.018-0.604,2.633-1.862,3-3 c-0.951,0.559-2.671,1.156-3.793,1.372C31.311,15.422,30.033,15,28.617,15C25.897,15,24,17.305,24,20v2c-4,0-7.9-3.047-10.327-6 c-0.427,0.721-0.667,1.565-0.667,2.457c0,1.819,1.671,3.665,2.994,4.543c-0.807-0.025-2.335-0.641-3-1c0,0.016,0,0.036,0,0.057 c0,2.367,1.661,3.974,3.912,4.422C16.501,26.592,16,27,14.072,27c0.626,1.935,3.773,2.958,5.928,3c-1.686,1.307-4.692,2-7,2 c-0.399,0-0.615,0.022-1-0.023C14.178,33.357,17.22,34,20,34c9.057,0,14-6.918,14-13.37c0-0.212-0.007-0.922-0.018-1.13 C34.95,18.818,35.342,18.104,36,17.12"></path>
    </symbol>

    <symbol id="icon-chevron-right" viewBox="0 0 512 512">
      <path
        d="M0 256a256 256 0 1 0 512 0A256 256 0 1 0 0 256zM241 377c-9.4 9.4-24.6 9.4-33.9 0s-9.4-24.6 0-33.9l87-87-87-87c-9.4-9.4-9.4-24.6 0-33.9s24.6-9.4 33.9 0L345 239c9.4 9.4 9.4 24.6 0 33.9L241 377z" />
    </symbol>

    <symbol id="icon-chevron-left" viewBox="0 0 512 512">
      <path
        d="M512 256A256 256 0 1 0 0 256a256 256 0 1 0 512 0zM271 135c9.4-9.4 24.6-9.4 33.9 0s9.4 24.6 0 33.9l-87 87 87 87c9.4 9.4 9.4 24.6 0 33.9s-24.6 9.4-33.9 0L167 273c-9.4-9.4-9.4-24.6 0-33.9L271 135z" />
    </symbol>

  </defs>
</svg>